<svg
    width="100%"
    height="100%"
    viewBox="0 0 24 24"
    xmlns="http://www.w3.org/2000/svg"
    preserveAspectRatio="xMidYMid meet"
    focusable="false">
    <g id="logo_cache35">
      <g id="Fill-16-Clipped_cache35">
        <path
          id="Fill-16_cache35"
          d="M18.8312365,8.65309452 C15.8343103,8.65309452 12.4179221,13.5299177 11.8809184,16.3340142 C18.6407116,17.6000829 20.0988418,12.7224915 20.0988418,10.4584717 C20.0988418,9.38215961 19.4074207,8.65309452 18.8312365,8.65309452 Z"
          fill="#be1622"
          mask="url(#mask-2)" />
      </g>
      <g id="Fill-18-Clipped_cache35">
        <path
          id="Fill-18_cache35"
          d="M4.1231742,10.5475793 C3.77823192,10.5475793 3.47093369,10.6646532 3.12522317,10.7825076 L1.43585105,11.3280721 L1.20614562,10.5873844 L8.11728317,7.85722073 C8.88552876,7.9344895 8.77029192,8.63615251 8.57823053,9.53371918 L5.7464772,22.5819973 C6.51933228,23.0620004 7.34365982,23.4592712 8.21792333,23.755078 C8.03969035,22.8504868 7.96440228,21.9318468 7.96440228,21.1224758 C7.96440228,14.7232156 13.5702905,7.85722073 19.8660633,7.85722073 C21.9433995,7.85722073 22.864526,9.0263989 22.864526,11.3678772 C22.864526,15.1907308 17.9093418,19.0931946 11.5728519,17.5322091 C10.6532619,21.5837471 12.2796379,24.5223024 15.23892,23.9221034 C20.2909032,22.4852162 23.999993,17.7843083 23.999993,12.1920776 C23.999993,5.45876642 18.6299562,0 12.0023012,0 C11.1272695,0 10.2768216,0.100683567 9.45479878,0.282538382 C9.82202018,0.770346365 9.94954894,1.4470336 9.84583579,2.12059886 C9.65377438,3.40841194 8.69500385,4.6954445 7.19615666,4.6954445 C5.8140828,4.6954445 5.19948631,3.40841194 5.3523672,2.12059886 C5.35697666,2.09172062 5.36542738,2.06284239 5.36850036,2.03552514 C2.13495456,4.22012441 0,7.95166034 0,12.1920776 C0,15.2024382 1.08015333,17.9521142 2.86017842,20.078957 L4.58565806,12.14837 C4.77771948,11.4849511 5.0089614,10.5475793 4.1231742,10.5475793 Z"
          fill="#be1622"
          mask="url(#mask-4)" />
      </g>
    </g>
  </svg>